HIERARCHY
ROOT pelvis
{
  OFFSET 0 100 0
  CHANNELS 6 Xposition Yposition Zposition Zrotation Xrotation Yrotation
  JOINT pelvis_right_femur
  {
    OFFSET -10.78128 -3.44521 -0.5502486
    CHANNELS 3 Zrotation Xrotation Yrotation
    JOINT right_femur_tibia
    {
      OFFSET -0.8047443 -44.0398 -0.1307829
      CHANNELS 3 Zrotation Xrotation Yrotation
      JOINT right_tibia_foot
      {
        OFFSET 3.006224 -47.83518 -5
        CHANNELS 3 Zrotation Xrotation Yrotation
        End Site
        {
          OFFSET 0 -5 15
        }
      }
    }
  }
  JOINT pelvis_left_femur
  {
    OFFSET 10.78128 -3.44521 -0.5502486
    CHANNELS 3 Zrotation Xrotation Yrotation
    JOINT left_femur_tibia
    {
      OFFSET 0.8047443 -44.0398 -0.1307829
      CHANNELS 3 Zrotation Xrotation Yrotation
      JOINT left_tibia_foot
      {
        OFFSET -4.370144 -48.10324 -4.275266
        CHANNELS 3 Zrotation Xrotation Yrotation
        End Site
        {
          OFFSET 0 -5 15
        }
      }
    }
  }
  JOINT pelvis_spine1
  {
    OFFSET 0 6.468898 -3.129235
    CHANNELS 3 Zrotation Xrotation Yrotation
    JOINT spine1
    {
      OFFSET 0 23.15396 4.99043
      CHANNELS 3 Zrotation Xrotation Yrotation
      JOINT spine2
      {
        OFFSET 0 20.79997 -5.064912
        CHANNELS 3 Zrotation Xrotation Yrotation
        JOINT neck
        {
          OFFSET 0 14.38658 9.616178
          CHANNELS 3 Zrotation Xrotation Yrotation
          End Site
          {
            OFFSET 0 20 0
          }
        }
      }
      JOINT right_manubrium
      {
        OFFSET -5.722621 16.35077 3.967754
        CHANNELS 3 Zrotation Xrotation Yrotation
        JOINT right_clavicle
        {
          OFFSET -13.16364 1.694482 -4.693211
          CHANNELS 3 Zrotation Xrotation Yrotation
          JOINT right_humerus
          {
            OFFSET -28.5034 -0.3100689 -2.792744
            CHANNELS 3 Zrotation Xrotation Yrotation
            JOINT right_radius
            {
              OFFSET -25.15693 0.02248979 -1.271978
              CHANNELS 3 Zrotation Xrotation Yrotation
              End Site
              {
                OFFSET -15 0 0
              }
            }
          }
        }
      }
      JOINT left_manubrium
      {
        OFFSET 5.722621 16.35077 3.967754
        CHANNELS 3 Zrotation Xrotation Yrotation
        JOINT left_clavicle
        {
          OFFSET 13.16364 1.694482 -4.693211
          CHANNELS 3 Zrotation Xrotation Yrotation
          JOINT left_humerus
          {
            OFFSET 29.39168 -1.063119 -2.237045
            CHANNELS 3 Zrotation Xrotation Yrotation
            JOINT left_radius
            {
              OFFSET 24.59957 -0.9528479 0.9047498
              CHANNELS 3 Zrotation Xrotation Yrotation
              End Site
              {
                OFFSET 15 -0 -0
              }
            }
          }
        }
      }
    }
  }
}
MOTION
Frames: 15
Frame Time: 0.0416666666667
2149.919 100.6715 1743.968 7.717383 2.832457 95.14752 -0.1136621 6.38949 4.862511 -0 53.58 -0 2.466292 1.166782 -5.407168 -5.355047 -9.049226 -7.734742 -0 22.546 -0 -3.840895 -11.51827 17.73893 -3.153372 -0.4196012 6.579964 -1.186236 10.45262 -4.264268 1.772889 21.99371 6.050538 2.080842 -17.98349 7.795292 1.828608 -19.58914 10.60209 85.84865 24.51762 -11.20984 -0 0 19.24467 -24.6084 12.3903 13.46327 3.698179 -15.80669 -3.458544 -91.07856 23.9367 22.90695 0 0 -10.42789 -1.510853 5.06632 16.31149
2155.966 101.731 1742.53 8.092733 2.660779 96.39265 0.1907593 -0.1584172 4.191407 -0 54.10517 -0 2.498591 0.1102484 -6.589994 -5.460617 -3.68823 -7.989549 -0 20.70798 -0 -4.075451 -13.01881 16.97149 -2.838306 0.1251352 5.369123 -0.9003541 10.23527 -4.998142 1.626805 22.33795 6.353237 1.834 -17.46953 8.19675 1.929648 -18.47109 10.43198 86.94274 24.78143 -12.8813 -0 0 17.60214 -24.2122 12.8396 12.98665 3.902002 -16.56388 -3.876876 -88.93365 24.22676 19.0711 0 0 -12.47879 -1.064467 5.346035 15.49882
2161.713 102.3872 1741.205 8.202878 2.482716 97.65147 0.3805869 -6.942317 3.47167 -0 50.69528 -0 1.88031 -1.132928 -7.441083 -5.377219 1.655855 -8.293523 -0 18.20394 -0 -4.441703 -14.65669 16.07234 -2.470572 0.5683351 4.228732 -0.6213939 9.94512 -5.770744 1.611927 22.62938 6.484918 1.659114 -17.00892 8.480324 1.582043 -17.44368 10.1495 88.29609 24.69431 -14.82717 -0 0 16.04714 -23.69437 12.91904 12.40847 4.344315 -17.66246 -4.32804 -86.69653 24.56789 14.91999 0 0 -15.30291 -0.5696119 5.814999 14.62084
2167.288 102.5079 1739.984 7.987795 2.30863 98.82363 0.5015879 -13.05443 2.913427 -0 44.74679 -0 0.4507871 -1.618728 -7.883609 -5.226013 6.420551 -8.598116 -0 15.60429 -0 -4.573258 -16.29577 15.24197 -2.14706 0.7593469 3.362172 -0.3117025 9.827703 -6.584619 1.67294 22.71119 6.380199 1.622287 -16.96088 8.458224 0.886746 -16.88063 9.903191 89.88606 24.10342 -16.96283 -0 0 14.70497 -22.76331 12.37745 11.70797 4.911637 -19.08147 -4.76321 -84.93725 24.92993 11.58047 0 0 -18.39725 -0.04684989 6.264031 13.94979
2172.761 102.1415 1738.836 7.339299 2.037988 99.84716 0.6718004 -18.11307 2.589214 -0 38.12336 -0 -1.408022 -1.256739 -7.863179 -5.088663 10.21847 -8.898027 -0 13.37428 -0 -4.39413 -17.83891 14.58176 -1.892398 0.6920341 2.860063 0.08408342 9.914337 -7.403405 1.699325 22.51834 6.226177 1.769948 -17.53322 8.217531 0.2736634 -16.82146 9.807301 91.28155 23.50661 -19.03768 -0 0 13.59996 -21.46976 11.53919 10.915 5.49263 -20.63122 -5.06482 -84.00691 25.28771 9.733059 0 0 -21.13222 0.5745541 6.745825 13.46412
2178.153 101.4216 1737.723 6.202702 1.586467 100.7017 0.928912 -22.25165 2.364965 -0 31.80973 -0 -3.092697 -0.5679682 -7.395964 -4.983687 12.99975 -9.239654 -0 11.7994 -0 -4.128435 -19.23581 14.00511 -1.708684 0.4759058 2.659622 0.5777357 10.03007 -8.13044 1.632884 22.11687 6.276723 2.088884 -18.6351 8.031212 0.1563957 -16.94982 9.884703 92.07022 23.64205 -20.82741 -0 0 12.5845 -20.1777 11.05316 10.1414 6.04288 -22.06071 -5.119828 -83.81816 25.52901 9.172801 0 0 -23.19234 1.41315 7.500142 12.85332
2183.51 100.4905 1736.61 4.646167 0.9777881 101.403 1.244724 -25.63167 2.042221 -0 25.87187 -0 -4.187471 -0.001086271 -6.596318 -4.908446 14.89656 -9.586562 -0 11.18299 -0 -4.009808 -20.38537 13.34084 -1.614832 0.2241492 2.628782 1.152101 10.0147 -8.680612 1.472411 21.61126 6.631944 2.518108 -20.01048 8.071309 0.6668139 -16.92081 10.1145 92.16971 24.85953 -22.24882 -0 0 11.43298 -19.2163 11.29875 9.530122 6.539371 -23.18086 -4.896959 -84.02003 25.46284 9.242427 0 0 -24.62791 2.514624 8.532047 11.82435
2188.966 99.47401 1735.459 2.923402 0.3574877 101.998 1.585772 -28.12151 1.458156 -0 20.11491 -0 -4.580702 0.3837436 -5.647743 -4.877299 16.1136 -9.765543 -0 11.98367 -0 -4.154753 -21.02466 12.44901 -1.613658 -0.01465889 2.624845 1.756322 9.847619 -9.01037 1.239268 21.11377 7.18947 2.953995 -21.32661 8.286376 1.591817 -16.561 10.44867 91.85667 26.84359 -23.33883 -0 0 9.936392 -18.77562 12.14729 9.245471 6.926432 -23.90103 -4.4986 -84.17126 24.8956 9.243354 0 0 -25.7585 3.757276 9.474356 10.33467
2194.751 98.47482 1734.244 1.516077 -0.05005203 102.5389 1.988471 -29.27701 0.6606052 -0 14.68598 -0 -4.454514 0.8151826 -4.845951 -4.89408 16.92519 -9.568927 -0 14.783 -0 -4.537079 -20.68236 11.38831 -1.610708 -0.319066 2.556631 2.254144 9.675658 -9.129535 0.9845097 20.75561 7.665675 3.248301 -22.18304 8.424062 2.403084 -15.95409 10.7951 91.72267 28.62103 -24.29343 -0 0 8.062315 -18.89539 13.06518 9.365327 7.12551 -24.27298 -4.172234 -83.91214 23.7859 8.733056 0 0 -27.12167 4.783985 9.848526 8.781662
2201.062 97.64507 1732.976 0.864653 -0.1908109 103.0174 2.800708 -28.6199 0.4014395 -0 10.74803 -0 -4.102298 1.304108 -4.622598 -4.820152 17.37639 -9.045294 -0 20.25139 -0 -4.941667 -18.71633 10.63666 -1.354388 -0.9013224 2.509356 2.472908 9.747262 -9.132126 0.8120579 20.57577 7.739932 3.271502 -22.36442 8.259459 2.65645 -15.46159 11.064 92.28019 29.30495 -25.37187 -0 0 6.271709 -19.22787 13.62924 9.631134 7.063049 -24.42434 -4.086572 -83.4006 22.48094 8.173709 0 0 -28.91584 5.194289 9.569642 7.97424
2207.877 97.28611 1731.705 0.8983924 -0.4333416 103.3211 4.544024 -26.24216 1.988379 -0 10.21464 -0 -3.371696 1.271133 -5.211031 -4.305794 16.84227 -8.665228 -0 28.71466 -0 -5.310471 -14.69195 10.742 -0.5920047 -1.757506 2.723303 2.411233 10.2085 -9.132696 0.8281341 20.33128 7.419748 3.070015 -22.14406 7.958033 2.713446 -15.40981 11.3094 93.12383 29.36471 -26.42722 -0 0 5.614242 -19.17569 14.26796 9.658111 6.680413 -24.24837 -4.032373 -83.41719 21.6909 8.985448 0 0 -30.19991 4.856956 8.907756 8.67463
2214.959 97.6118 1730.459 1.431421 -0.9213273 103.3102 6.59064 -22.87627 4.888898 -0 12.89162 -0 -1.784511 0.49426 -5.990808 -3.320519 14.77847 -8.599772 -0 38.73552 -0 -6.367324 -9.684193 11.39095 0.4345574 -2.20163 3.214067 2.21386 10.88199 -9.020102 0.9963532 19.89561 7.16359 2.96671 -21.70756 7.839826 3.399951 -15.50811 11.68529 93.04325 29.9239 -26.73953 -0 0 6.590487 -19.12174 15.68071 9.61206 6.089465 -23.53518 -3.856957 -84.26345 21.74304 11.21258 0 0 -29.74972 3.849796 7.974623 10.66202
2222.02 98.48677 1729.235 2.555861 -1.045115 102.9246 7.470906 -19.12155 6.451188 -0 15.46873 -0 -0.5467617 -0.772923 -6.038042 -2.578159 11.80413 -8.372785 -0 47.62794 -0 -8.024004 -6.40223 12.04817 0.9345398 -1.673622 3.658572 1.980169 11.2361 -8.577131 1.197158 19.91836 7.103175 3.139021 -20.8903 7.791446 4.42281 -15.18557 11.9495 91.82809 30.84693 -25.78659 -0 0 7.741506 -19.43964 16.89058 9.495158 5.556112 -22.60012 -3.736892 -85.22334 22.34555 12.56767 0 0 -27.59266 2.870945 7.463139 12.00498
2228.779 99.73421 1728.066 3.556066 -0.7490196 102.2642 7.351517 -15.1985 6.462648 -0 16.35215 -0 -1.361425 -3.046189 -5.426375 -2.494695 8.133546 -8.160629 -0 53.98486 -0 -8.74817 -5.537227 12.69213 0.7334805 -0.7499145 4.089118 1.846583 11.00935 -7.9167 1.380919 20.6293 6.882589 3.25513 -20.32276 7.687598 4.916475 -14.85979 11.79054 90.36895 31.56847 -23.93278 -0 0 8.163474 -18.6477 16.43267 8.887654 5.082845 -21.72011 -3.414275 -86.34152 23.48582 13.20251 0 0 -24.62535 2.569896 7.881309 12.01774
2235.098 101.1415 1726.954 3.972152 -0.3205035 101.5029 6.934033 -10.87082 6.221416 -0 16.05831 -0 -2.956634 -5.871743 -4.641407 -2.704621 3.13216 -8.056357 -0 57.71321 -0 -8.542082 -5.551271 13.29896 0.2972226 0.01577737 4.816244 1.742797 10.64467 -7.174857 1.49098 21.3777 6.529672 3.214903 -20.25955 7.525161 4.949358 -15.15593 11.55727 88.90409 31.91257 -21.73897 -0 0 8.965404 -17.21855 15.01538 8.42008 4.695554 -20.86009 -2.85013 -88.00643 24.70103 14.81328 0 0 -21.77127 2.40008 8.268684 12.03613
